<svg width="160" height="160" viewBox="0 0 160 160" fill="none" xmlns="http://www.w3.org/2000/svg">
<circle cx="80" cy="80" r="77" fill="white" stroke="url(#paint0_linear_2370_16685)" stroke-width="6"/>
<path d="M125 55H95C93.6739 55 92.4021 55.5268 91.4645 56.4645C90.5268 57.4021 90 58.6739 90 60V75H80V40C80 38.6739 79.4732 37.4021 78.5355 36.4645C77.5979 35.5268 76.3261 35 75 35H35C33.6739 35 32.4021 35.5268 31.4645 36.4645C30.5268 37.4021 30 38.6739 30 40V120C30 121.326 30.5268 122.598 31.4645 123.536C32.4021 124.473 33.6739 125 35 125H125C126.326 125 127.598 124.473 128.536 123.536C129.473 122.598 130 121.326 130 120V60C130 58.6739 129.473 57.4021 128.536 56.4645C127.598 55.5268 126.326 55 125 55ZM60 50H70V60H60V50ZM50 100H40V90H50V100ZM50 80H40V70H50V80ZM50 60H40V50H50V60ZM70 100H60V90H70V100ZM70 80H60V70H70V80ZM115 100H105V90H115V100ZM115 80H105V70H115V80Z" fill="url(#paint1_linear_2370_16685)"/>
<defs>
<linearGradient id="paint0_linear_2370_16685" x1="80" y1="0" x2="80" y2="160" gradientUnits="userSpaceOnUse">
<stop stop-color="#0066FF" stop-opacity="0.93"/>
<stop offset="1" stop-color="#00B2FF"/>
</linearGradient>
<linearGradient id="paint1_linear_2370_16685" x1="80" y1="35" x2="80" y2="125" gradientUnits="userSpaceOnUse">
<stop stop-color="#0066FF" stop-opacity="0.93"/>
<stop offset="1" stop-color="#1E0094"/>
</linearGradient>
</defs>
</svg>
