<svg width="108" height="108" viewBox="0 0 108 108" fill="none" xmlns="http://www.w3.org/2000/svg">
<path d="M53.6942 0C67.9348 0 81.5921 5.66513 91.6618 15.7491C101.731 25.8331 107.388 39.5099 107.388 53.7708C107.388 68.0317 101.731 81.7086 91.6618 91.7926C81.5921 101.877 67.9348 107.542 53.6942 107.542C39.4536 107.542 25.7963 101.877 15.7267 91.7926C5.65705 81.7086 0 68.0317 0 53.7708C0 39.5099 5.65705 25.8331 15.7267 15.7491C25.7963 5.66513 39.4536 0 53.6942 0ZM10.0677 53.7708C10.0677 65.3578 14.664 76.4702 22.8456 84.6635C31.0272 92.8567 42.1237 97.4596 53.6942 97.4596C65.2647 97.4596 76.3613 92.8567 84.5428 84.6635C92.7244 76.4702 97.3208 65.3578 97.3208 53.7708C97.3208 42.1838 92.7244 31.0714 84.5428 22.8782C76.3613 14.6849 65.2647 10.082 53.6942 10.082C42.1237 10.082 31.0272 14.6849 22.8456 22.8782C14.664 31.0714 10.0677 42.1838 10.0677 53.7708ZM42.8144 35.1325L71.4334 52.3325C71.6808 52.482 71.8853 52.6931 72.0273 52.9451C72.1693 53.197 72.2439 53.4815 72.2439 53.7708C72.2439 54.0602 72.1693 54.3446 72.0273 54.5966C71.8853 54.8486 71.6808 55.0596 71.4334 55.2092L42.8144 72.4091C42.5599 72.5627 42.2693 72.6458 41.9722 72.65C41.6752 72.6542 41.3823 72.5793 41.1236 72.433C40.8649 72.2867 40.6496 72.0743 40.4997 71.8173C40.3499 71.5604 40.2708 71.2683 40.2707 70.9708V36.5776C40.2696 36.2795 40.3478 35.9865 40.4972 35.7287C40.6466 35.4708 40.8618 35.2574 41.1207 35.1103C41.3796 34.9632 41.6729 34.8878 41.9705 34.8917C42.2682 34.8956 42.5594 34.9787 42.8144 35.1325Z" fill="#4981D4" fill-opacity="0.93"/>
</svg>
